<svg xmlns="http://www.w3.org/2000/svg" width="350.663" height="119.312" viewBox="0 0 350.663 119.312">
  <path fill="#0081C6" d="M19.958 30.724S27.173 22.5 37.895 17.15c10.706-5.355 22.26-6.148 24.19-6.768 1.918-.604 3.62-2.185 3.62-5.55 0-3.376-3.507-4.437-5.548-4.43-2.05.02-26.845 2.325-41.647 30.332l1.448-.01z"/>
  <path fill="#00AEEF" d="M4.67 62.225S11.17 45.83 31.99 33.667c20.828-12.155 41.284-8.542 50.79-7.274 2.892.227 7.103-2.208 6.98-6.54-.12-4.326-2.404-5.998-5.773-7.062-4.334-1.54-58.744-5.317-80.65 49.567 1.086-.01 1.33-.132 1.33-.132"/>
  <path fill="#8CD2F4" d="M1.964 111.877s-5.353-23.85 12.698-46.934C32.712 41.85 56.545 40.625 70.627 41.51c2.89.108 5.896-2.207 5.896-6.295 0-4.092-2.526-6.367-7.215-6.93-4.69-.585-35.874.202-56.937 29.816C.58 74.774-1.582 91.544.937 112.12l1.028-.243z"/>
  <path d="M345.918 30.51c2.68-.02 4.745 2.052 4.745 4.623 0 2.652-2.065 4.71-4.778 4.723-2.672.022-4.802-2.017-4.802-4.654 0-2.598 2.13-4.687 4.802-4.69h.033zm-.05.933c-2.056.018-3.595 1.706-3.595 3.747 0 2.077 1.54 3.72 3.645 3.71 2.04.01 3.555-1.675 3.555-3.744 0-2.055-1.515-3.717-3.588-3.713h-.016zm-.72 6.148l-1.077.007V32.96c.422-.086 1.03-.173 1.8-.173.865-.008 1.27.134 1.61.35.26.208.453.574.453 1 0 .543-.396.937-.972 1.114v.06c.463.144.73.502.868 1.128.13.71.22.998.34 1.138l-1.166.012c-.146-.17-.235-.575-.364-1.116-.098-.508-.38-.737-.972-.732h-.52v1.85zm.033-2.607l.52-.012c.583 0 1.068-.193 1.068-.69 0-.422-.315-.703-.996-.703-.283.006-.47.034-.59.06v1.346zM123.628 49.75s-1.353.478-1.36 1.573c-.01 1.118-.114 2.36-.114 2.36s-3.976-4.778-10.05-1.59c-5.846 2.54-10.39 10.047-10.34 21.173.04 11.127 6.422 19.177 15.427 14.893 2.414-1.135 4.277-2.763 4.917-3.92-.008 2.85.016 15.774.016 15.774s-.438 4.486 2.915 3.78c3.353-.695 9.103-1.95 9.103-1.95l-.016-52.53c0-.546.308-1.566.794-1.96-2.082.428-11.29 2.396-11.29 2.396m-1.53 25.606c-.413.826-1.36 1.75-2.42 2.154-5.006 2-5.443-4.31-5.5-6.908-.032-2.583.057-8.37 3.758-9.816 3.71-1.425 4.22 2.82 4.22 2.82s-.058 10.94-.058 11.75M329.552 5.424c-7.11-.022-10.35 5.75-10.35 5.75s-.032-.538-.113-1.657c-.082-1.142-1.377-1.026-1.377-1.026s-8.876 1.892-11.59 2.45c.487-.096.697.707.697 1.238l.01 52.944s5.82-1.214 9.287-1.963c3.004-.637 3.02-4.573 3.02-5.21 0-.66-.016-12.19-.016-15.13.665.9 2.576 1.758 5.055 1.87 9.23.403 15.848-10.785 15.937-22.328.088-11.54-4.568-16.912-10.56-16.938m-2.228 19.74c-.057 2.7-.525 9.445-5.668 9.604-1.094.052-2.057-.49-2.486-1.15V21.463s.543-4.63 4.35-4.79c3.804-.183 3.87 5.783 3.804 8.492M44.43 91.366l-2.535 12.09-12.706 2.68 12.26-48.634s.154-.44.396-1.446c.332-1.393-.834-2.215-.834-2.215l17.743-3.75 13.662 46.83-13.25 2.818-2.915-10.884-11.822 2.512zm10.123-11.97l-2.105-8.478c-.688-2.656-1.563-6.53-2.243-9.346l-.138.028c-.68 3.104-1.36 7.3-2.033 10.265l-1.984 9.337 8.503-1.805zM99.642 89.973c-1.984 1.465-5.442 2.704-9.183 3.498-11.136 2.374-18.132-3.222-18.132-14.745 0-10.325 6.583-20.59 19.63-23.353 2.372-.508 5.303-.757 7.684-.38l-1.7 10.103c-1.16-.27-2.787-.296-5.305.246-4.55.963-7.806 5.053-7.742 10.275 0 5.903 3.733 7.912 8.082 6.99 2.105-.446 3.806-1.103 5.36-2.1l1.305 9.468zM172.953 63.168c0 5.175.138 9.272.267 12.342l-10.6 2.25-.535-4.672-.202.04c-1.223 2.243-4.146 6.487-10.13 7.76-7.467 1.594-11.897-2.714-11.897-13.193V46.29l12.31-2.61v19.264c0 4.638 1.352 6.865 4.275 6.25 2.244-.486 3.46-2.446 3.937-3.946.21-.547.283-1.23.283-1.97V41.87l12.293-2.612v23.91zM238.24 21.616c-3.8.802-6.18-1.488-6.18-4.96 0-3.688 2.445-6.877 6.25-7.677 3.8-.817 6.19 1.34 6.245 5.01 0 3.47-2.446 6.795-6.244 7.61l-.07.016zm-6.107 41.43V26.68l12.293-2.62v36.37l-12.293 2.617zM250.2 35.232c0-4.87-.13-8.973-.276-12.343l10.26-2.175.48 4.47.274-.06c1.223-2.1 4.14-6.267 9.912-7.496 4.283-.91 7.612.52 9.045 3.906l.13-.024c1.288-2.192 2.858-3.925 4.624-5.334 1.69-1.32 3.667-2.26 5.902-2.73 7.207-1.538 11.354 3.265 11.354 13.375v21.35l-11.896 2.533v-19.36c0-4.5-1.224-6.83-3.936-6.246-1.977.42-3.19 2.006-3.733 3.893-.283.786-.348 1.916-.348 2.728v20.685l-11.888 2.533v-19.73c0-4.06-1.158-6.474-3.943-5.875-2.16.463-3.255 2.46-3.732 3.748-.268.938-.34 1.916-.34 2.8v20.794l-11.89 2.533V35.232zM219.21 15.92c-1.855.383-5.613 2.078-5.613 8.96v42.103l7.475-1.573s5.677-1.784 5.677-8.83c0-7.042.007-42.254.007-42.254-5.233 1.113-5.233 1.113-7.548 1.595M207.767 62.38c.09-5.25 0-18.864 0-18.864s.404-10.667-11.62-10.596c-5.807.028-13.428 4.136-15.954 6.062v9.875s5.4-6.408 13.087-6.45c1.48.077 3.36 1.174 2.785 3.65-2.462.808-19.557 6.31-19.557 17.862-.08 5.97 4.252 9.598 8.916 9.573s9.337-3.077 10.81-6.51c0 1.83 0 3.675 2.608 3.092 3.426-.777 6.48-1.344 11.19-2.332-1.27-.526-2.104-.826-2.265-5.362m-11.62-4.228s-.737 7.966-7.038 4.575c-.908-.79-3.686-7.54 7.036-10.462v5.887z"/>
  <g fill="#0081C6">
    <path d="M157.13 116.34l-.56-7.823c-.104-1.71-.258-4.05-.282-6.122l-.065.016c-.438 2.066-.947 4.358-1.474 6.245l-2.334 8.486-2.154.463-2.446-7.33c-.575-1.756-1.166-3.812-1.676-5.7l-.05.01c-.03 1.935.01 4.477-.04 6.193l-.218 7.977-2.59.56.64-17.006 3.684-.794 2.478 7.354c.43 1.408.947 3.045 1.304 4.575l.097-.017c.243-1.66.648-3.522 1.044-5.053l2.275-8.406 3.733-.802 1.328 16.585-2.696.59zM170.386 113.49c-.12-.705-.227-1.652-.348-2.673l-.073.008c-.688 2.405-2.057 3.475-3.547 3.79-2.08.445-3.79-.89-4.292-3.23-.85-3.977 1.012-8.803 6.446-9.97 1.27-.274 2.68-.323 3.628-.227l.105 6.333c.04 1.814.324 4.042.664 5.41l-2.584.56zm-.915-9.897c-.307-.008-.68.024-1.173.13-2.59.55-3.952 3.88-3.385 6.535.26 1.223.93 2.13 2.154 1.87 1.295-.283 2.526-2.243 2.438-5.336l-.033-3.2zM175.723 112.34l-.3-12.124 2.802-.6.275 12.132-2.777.59zm-.52-15.38c-.217-1.003.406-1.86 1.314-2.056.858-.187 1.62.3 1.806 1.19.194 1.028-.43 1.83-1.37 2.04-.858.18-1.587-.3-1.75-1.173zM181.415 108.396c.664.21 1.91.413 2.964.186 1.117-.26 1.65-1.053 1.49-1.82-.163-.738-.64-1.11-1.92-1.467-1.49-.405-2.656-1.207-2.948-2.543-.478-2.25 1.143-4.252 3.896-4.835 1.223-.267 2.284-.202 2.883 0l-.29 2.17c-.48-.153-1.328-.274-2.292-.064-1.053.227-1.644.956-1.474 1.74.138.648.76.99 1.846 1.28 1.417.438 2.778 1.134 3.094 2.624.55 2.56-1.304 4.43-4.105 5.037-1.36.29-2.714.178-3.427-.146l.282-2.162zM204.567 105.456c-1.02.843-2.51 1.482-3.928 1.798-3.224.688-5.207-.938-5.814-3.79-.754-3.522 1.004-7.895 5.028-8.762 2.3-.494 4.05.535 4.462 2.47.64 2.988-2.292 4.624-6.81 5.49.04.422.307 1.19.663 1.588.623.696 1.554.923 2.647.688 1.32-.283 2.3-.85 3.045-1.458l.705 1.976zm-4.624-8.6c-1.75.38-2.56 2.18-2.59 3.668 2.873-.574 4.63-1.376 4.34-2.76-.17-.77-.867-1.095-1.75-.908zM211.41 104.687l-.243-8.357c-.032-1.45-.097-2.705-.194-3.733l2.414-.518.193 2.088.024-.008c.77-1.798 2.05-2.85 3.556-3.167 1.822-.396 2.907.575 3.264 1.798.688-1.82 2.008-2.906 3.604-3.27 1.604-.348 3.077.42 3.522 2.503.105.493.194 1.376.227 2.024l.178 7.094-2.712.584-.17-6.77c-.033-.494-.05-1.045-.154-1.523-.212-.978-.763-1.562-1.79-1.335-1.272.268-2.34 2.17-2.27 4.737l.147 5.798-2.68.575-.17-6.867c-.01-.502-.058-.972-.155-1.4-.187-.883-.615-1.61-1.75-1.377-1.287.284-2.396 2.35-2.315 4.803l.18 5.75-2.707.574zM240.06 97.844c-1.02.85-2.51 1.49-3.918 1.79-3.23.687-5.207-.94-5.822-3.782-.753-3.515 1.012-7.904 5.037-8.762 2.29-.494 4.04.534 4.453 2.47.64 2.987-2.29 4.624-6.81 5.49.04.42.308 1.19.672 1.587.623.688 1.547.915 2.647.688 1.32-.292 2.3-.85 3.036-1.458l.705 1.977zm-4.615-8.6c-1.75.38-2.567 2.18-2.6 3.66 2.883-.56 4.632-1.368 4.34-2.753-.16-.77-.866-1.093-1.74-.906zM242.522 98.014l-.38-17.687 2.77-.6.412 17.687-2.802.6zM248.482 96.735l-.437-17.678 2.802-.6.162 7.377.047-.008c.713-1.434 1.84-2.502 3.466-2.858 1.596-.34 3.135.39 3.588 2.51.13.607.235 1.434.252 2.105l.154 7.005-2.778.592-.153-6.803c-.024-.47-.065-.988-.187-1.555-.187-.89-.745-1.498-1.798-1.27-1.368.29-2.55 2.25-2.478 4.81l.138 5.78-2.778.593zM271.927 84.296c.85 3.95-1.198 7.943-5.167 8.802-2.947.632-5.207-1.02-5.798-3.798-.843-3.943 1.174-7.96 5.143-8.802 3.133-.672 5.27 1.214 5.822 3.798zm-8.107 4.325c.34 1.605 1.45 2.543 2.858 2.244 2.08-.445 2.85-3.62 2.356-5.944-.26-1.198-1.1-2.56-2.802-2.202-2.225.47-2.88 3.716-2.412 5.903zM274.647 91.123l-.18-7.466c-.04-1.717-.273-3.523-.354-4.608l2.42-.52c.1.81.195 1.637.26 2.52l.073-.01c.454-1.748 1.474-3.174 3.077-3.52.187-.033.413-.058.607-.082l.032 2.85c-.146.01-.34.025-.534.065-1.984.43-2.826 2.713-2.745 5.297l.12 4.883-2.776.59zM294.99 86.766c-.122-.696-.228-1.652-.35-2.68l-.072.007c-.68 2.405-2.057 3.475-3.54 3.798-2.088.446-3.797-.89-4.3-3.237-.85-3.977 1.014-8.803 6.447-9.97 1.27-.274 2.68-.323 3.636-.226l.106 6.34c.04 1.807.315 4.033.664 5.418l-2.59.55zm-.916-9.895c-.308-.008-.672.017-1.174.122-2.583.56-3.952 3.88-3.385 6.535.26 1.223.93 2.13 2.154 1.87 1.286-.283 2.517-2.243 2.436-5.328l-.032-3.2zm1.564-7.62l-2.373 4.21-2.105.454 1.54-4.033 2.938-.63zM301.16 87.616c.785.26 2.138.275 3.24.033 1.812-.39 3.02-1.548 3.012-4.374V81.89l-.04.017c-.665 1.588-1.742 2.527-3.224 2.843-2.316.502-4.05-1.134-4.543-3.337-.834-3.88 1.134-8.356 5.968-9.385 1.507-.332 3.037-.308 4.22-.057l.3 10.002c.048 2.364-.228 4.332-1.28 5.71-1.012 1.27-2.6 1.902-4.057 2.218-1.482.324-2.94.308-3.807-.008l.21-2.276zm5.952-13.345c-.315-.072-.947-.097-1.596.05-2.438.518-3.595 3.522-3.06 6.032.242 1.23.986 2.268 2.37 1.977 1.395-.31 2.423-2.26 2.382-4.447l-.096-3.612zM322.822 68.602l.187 8.373c.04 1.44.128 2.697.2 3.733l-2.46.534-.195-2.09-.057.01c-.793 1.748-2.09 2.85-3.547 3.166-1.7.364-3.238-.26-3.748-2.656-.13-.615-.203-1.313-.203-2.13l-.162-6.794 2.777-.6.17 6.616c0 .6.05 1.19.154 1.644.2.964.735 1.57 1.837 1.345 1.287-.284 2.47-2.138 2.405-4.648l-.146-5.903 2.786-.6zM333.746 78.45c-.13-.688-.234-1.652-.355-2.673l-.064.008c-.688 2.397-2.064 3.475-3.547 3.79-2.082.445-3.79-.89-4.3-3.24-.852-3.96 1.02-8.793 6.453-9.96 1.263-.272 2.68-.325 3.628-.232l.106 6.34c.04 1.813.315 4.032.664 5.417l-2.584.55zm-.923-9.897c-.3-.008-.664.033-1.174.13-2.585.56-3.953 3.88-3.387 6.535.268 1.223.94 2.13 2.162 1.862 1.288-.275 2.52-2.243 2.43-5.328l-.032-3.2z"/>
  </g>
</svg>
